M48
; DRILL file {KiCad 8.0.1-rc1} date 2024-04-07T21:12:25-0400
; FORMAT={-:-/ absolute / inch / decimal}
; #@! TF.CreationDate,2024-04-07T21:12:25-04:00
; #@! TF.GenerationSoftware,Kicad,Pcbnew,8.0.1-rc1
; #@! TF.FileFunction,Plated,1,2,PTH
FMAT,2
INCH
; #@! TA.AperFunction,Plated,PTH,ViaDrill
T1C0.0157
; #@! TA.AperFunction,Plated,PTH,ComponentDrill
T2C0.0402
; #@! TA.AperFunction,Plated,PTH,ComponentDrill
T3C0.0510
; #@! TA.AperFunction,Plated,PTH,ComponentDrill
T4C0.0591
; #@! TA.AperFunction,Plated,PTH,ComponentDrill
T5C0.1378
%
G90
G05
T1
X2.0079Y-2.4409
X2.0079Y-2.6378
X2.0079Y-2.8346
X2.0079Y-3.0315
X2.0079Y-3.2283
X2.0079Y-3.4252
X2.0079Y-3.622
X2.0079Y-4.0157
X2.0079Y-4.2126
X2.0079Y-4.4094
X2.0079Y-4.6063
X2.0079Y-4.8031
X2.0079Y-5.0
X2.0079Y-5.1969
X2.0079Y-5.3937
X2.0079Y-5.5906
X2.0079Y-5.7874
X2.0079Y-5.9843
X2.0079Y-6.1811
X2.0079Y-6.378
X2.0079Y-6.5748
X2.0079Y-6.7717
X2.0079Y-6.9685
X2.0079Y-7.1654
X2.0079Y-7.3622
X2.0079Y-7.5591
X2.0079Y-7.7559
X2.0472Y-5.5512
X2.0472Y-5.6299
X2.0472Y-5.7087
X2.0866Y-5.5118
X2.2047Y-2.4409
X2.2047Y-2.6378
X2.2047Y-4.0157
X2.2047Y-4.2126
X2.2047Y-4.4094
X2.2047Y-4.6063
X2.2047Y-4.8031
X2.2047Y-5.0
X2.2047Y-6.378
X2.2047Y-6.5748
X2.2047Y-6.7717
X2.2047Y-7.1654
X2.2047Y-7.3622
X2.2047Y-7.5591
X2.2047Y-7.7559
X2.2244Y-2.8346
X2.2244Y-3.0315
X2.2244Y-3.4252
X2.2244Y-3.622
X2.2441Y-5.315
X2.2441Y-5.5512
X2.2835Y-5.3937
X2.2835Y-5.4724
X2.3055Y-3.2807
X2.3335Y-5.5503
X2.4016Y-2.0472
X2.4016Y-2.2441
X2.4016Y-2.4409
X2.4016Y-2.6378
X2.4016Y-2.8346
X2.4016Y-3.2283
X2.4016Y-3.4252
X2.4016Y-3.622
X2.4016Y-3.8189
X2.4016Y-4.2126
X2.4016Y-4.6063
X2.4016Y-4.8031
X2.4016Y-5.0
X2.4016Y-5.1969
X2.4016Y-5.3937
X2.4016Y-5.7874
X2.4016Y-5.9843
X2.4016Y-6.1811
X2.4016Y-7.9528
X2.4016Y-8.1496
X2.4409Y-2.7165
X2.465Y-3.261
X2.465Y-4.2346
X2.4661Y-6.0008
X2.4661Y-6.9685
X2.5197Y-2.7165
X2.5197Y-4.7244
X2.5197Y-4.9213
X2.5197Y-5.1181
X2.5197Y-5.315
X2.5197Y-5.5118
X2.5197Y-7.2441
X2.5197Y-7.4803
X2.5591Y-6.2598
X2.5591Y-6.4961
X2.5591Y-7.126
X2.5661Y-4.2295
X2.5685Y-3.2587
X2.5984Y-2.0472
X2.5984Y-2.2441
X2.5984Y-2.4409
X2.5984Y-2.7165
X2.5984Y-4.8031
X2.5984Y-5.0
X2.5984Y-5.1969
X2.5984Y-5.3937
X2.5984Y-6.1811
X2.5984Y-6.9685
X2.5984Y-7.2441
X2.5984Y-7.4803
X2.5984Y-7.5591
X2.5984Y-7.7559
X2.5984Y-8.1496
X2.6024Y-4.6811
X2.6378Y-7.126
X2.6648Y-3.2594
X2.6648Y-4.2283
X2.6683Y-2.6
X2.6772Y-4.7638
X2.6772Y-4.9606
X2.6772Y-5.1575
X2.6772Y-5.3543
X2.6772Y-5.4764
X2.6772Y-6.2598
X2.6772Y-6.4961
X2.6772Y-7.2441
X2.6772Y-7.4803
X2.6811Y-4.6417
X2.7165Y-3.6614
X2.7543Y-4.2217
X2.7559Y-2.7165
X2.7559Y-2.9921
X2.7559Y-3.0709
X2.7559Y-3.9764
X2.7559Y-4.7244
X2.7559Y-4.9213
X2.7559Y-5.1181
X2.7669Y-6.0055
X2.7669Y-6.511
X2.7669Y-6.9744
X2.7669Y-7.5228
X2.7953Y-2.0472
X2.7953Y-2.2441
X2.7953Y-2.4409
X2.7953Y-3.2283
X2.7953Y-3.622
X2.7953Y-4.0551
X2.7953Y-4.6063
X2.7953Y-4.8031
X2.7953Y-5.0
X2.7953Y-5.5906
X2.7953Y-7.7559
X2.7953Y-7.9528
X2.7953Y-8.1496
X2.8346Y-2.7165
X2.8346Y-2.9921
X2.8346Y-3.0709
X2.8346Y-3.9764
X2.8346Y-5.7087
X2.874Y-3.6614
X2.874Y-4.0551
X2.874Y-5.5512
X2.9134Y-2.7165
X2.9134Y-2.9921
X2.9134Y-3.0709
X2.9134Y-3.9764
X2.9528Y-4.8819
X2.9528Y-5.0394
X2.9528Y-5.315
X2.9528Y-5.3937
X2.9528Y-5.4724
X2.9673Y-6.0079
X2.9673Y-6.7161
X2.9673Y-6.9748
X2.9921Y-2.0472
X2.9921Y-2.2441
X2.9921Y-2.4409
X2.9921Y-2.7165
X2.9921Y-3.622
X2.9921Y-4.6063
X2.9921Y-5.0787
X2.9921Y-5.2362
X2.9921Y-7.7559
X2.9921Y-7.9528
X2.9921Y-8.1496
X3.0315Y-5.2756
X3.0315Y-5.3543
X3.0315Y-5.4331
X3.0315Y-5.7087
X3.0441Y-4.4768
X3.052Y-3.424
X3.0709Y-5.6299
X3.1102Y-4.8819
X3.1102Y-4.9606
X3.1102Y-5.0394
X3.1496Y-2.9921
X3.1496Y-4.8425
X3.1496Y-4.9213
X3.189Y-2.0472
X3.189Y-2.2441
X3.189Y-2.4409
X3.189Y-3.2283
X3.189Y-6.9685
X3.189Y-7.7559
X3.189Y-7.9528
X3.189Y-8.1496
X3.2283Y-5.2362
X3.2283Y-5.315
X3.2283Y-5.5906
X3.2457Y-4.6929
X3.2677Y-5.1181
X3.2677Y-5.1969
X3.2677Y-5.2756
X3.2677Y-5.3543
X3.2677Y-5.5512
X3.2677Y-5.6299
X3.2677Y-5.7874
X3.3071Y-4.7244
X3.3071Y-4.9606
X3.3071Y-5.0394
X3.3465Y-4.8031
X3.3465Y-4.9213
X3.3465Y-5.0
X3.3465Y-5.5906
X3.3465Y-5.7874
X3.3543Y-4.2217
X3.3598Y-3.2583
X3.3598Y-6.0008
X3.363Y-6.9685
X3.3858Y-2.0472
X3.3858Y-2.2441
X3.3858Y-2.4409
X3.3858Y-3.622
X3.3858Y-7.6772
X3.3858Y-7.7559
X3.3858Y-7.9528
X3.3858Y-8.1496
X3.4055Y-6.4567
X3.4248Y-5.9984
X3.4252Y-2.7165
X3.4252Y-7.2441
X3.4252Y-7.4606
X3.4571Y-4.2248
X3.4606Y-3.2587
X3.4646Y-6.1811
X3.4646Y-6.9685
X3.4646Y-7.126
X3.4646Y-7.6772
X3.5039Y-2.7165
X3.5039Y-5.5118
X3.5039Y-6.2598
X3.5039Y-6.4567
X3.5039Y-7.2441
X3.5039Y-7.4409
X3.5433Y-7.126
X3.5433Y-7.6772
X3.5537Y-4.2236
X3.5561Y-3.2575
X3.56Y-2.6
X3.5827Y-2.0472
X3.5827Y-2.2441
X3.5827Y-3.622
X3.5827Y-4.6063
X3.5827Y-4.8031
X3.5827Y-5.0
X3.5827Y-5.1969
X3.5827Y-5.3937
X3.5827Y-6.1811
X3.5827Y-6.9685
X3.5827Y-7.2441
X3.5827Y-7.4606
X3.5827Y-7.7559
X3.5827Y-7.9528
X3.5827Y-8.1496
X3.622Y-2.7165
X3.622Y-2.9921
X3.622Y-3.0709
X3.622Y-3.9764
X3.622Y-5.5118
X3.622Y-5.8268
X3.6417Y-7.6772
X3.6559Y-6.0102
X3.6559Y-6.511
X3.6583Y-6.9764
X3.6583Y-7.5193
X3.6614Y-3.6614
X3.6614Y-4.0551
X3.7008Y-2.7165
X3.7008Y-2.9921
X3.7008Y-3.0709
X3.7008Y-3.9764
X3.7008Y-4.685
X3.7008Y-4.8819
X3.7008Y-5.0787
X3.7008Y-5.2756
X3.7008Y-5.4724
X3.7402Y-3.6614
X3.7402Y-4.0551
X3.7795Y-2.0472
X3.7795Y-2.2441
X3.7795Y-2.7165
X3.7795Y-2.9921
X3.7795Y-3.0709
X3.7795Y-3.2283
X3.7795Y-3.622
X3.7795Y-3.9764
X3.7795Y-4.2126
X3.7795Y-4.4094
X3.7795Y-4.8031
X3.7795Y-5.0
X3.7795Y-5.1969
X3.7795Y-5.3937
X3.7795Y-7.7559
X3.7795Y-7.9528
X3.7795Y-8.1496
X3.7835Y-4.6811
X3.815Y-5.2756
X3.8579Y-6.7126
X3.8583Y-2.7165
X3.8583Y-4.685
X3.8583Y-4.8819
X3.8583Y-5.0787
X3.8583Y-5.4724
X3.8583Y-5.6693
X3.8587Y-6.9748
X3.8606Y-6.0075
X3.9764Y-2.0472
X3.9764Y-2.2441
X3.9764Y-4.2126
X3.9764Y-4.4094
X3.9764Y-4.6063
X3.9764Y-5.5906
X3.9764Y-6.1811
X3.9764Y-6.9685
X3.9764Y-7.7559
X3.9764Y-7.9528
X3.9764Y-8.1496
X4.0018Y-2.6
X4.0945Y-4.9213
X4.0945Y-5.0787
X4.0945Y-5.2362
X4.0945Y-5.3937
X4.0945Y-5.4724
X4.0945Y-5.6299
X4.1039Y-6.511
X4.1039Y-7.5193
X4.1339Y-5.2756
X4.1339Y-5.3543
X4.1339Y-5.5118
X4.1339Y-5.5906
X4.1339Y-5.6693
X4.1339Y-5.748
X4.1732Y-2.0472
X4.1732Y-2.2441
X4.1732Y-2.4409
X4.1732Y-2.8346
X4.1732Y-3.0315
X4.1732Y-3.2283
X4.1732Y-3.4252
X4.1732Y-3.622
X4.1732Y-4.0157
X4.1732Y-4.2126
X4.1732Y-4.4094
X4.1732Y-4.6063
X4.1732Y-5.3937
X4.1732Y-5.4724
X4.1732Y-5.6299
X4.1732Y-6.1811
X4.1732Y-6.9685
X4.1732Y-7.1654
X4.1732Y-7.3622
X4.1732Y-7.5591
X4.1732Y-7.7559
X4.1732Y-7.9528
X4.1732Y-8.1496
X4.1823Y-6.6276
X4.2126Y-5.0787
X4.252Y-4.8031
X4.252Y-4.9213
X4.252Y-5.0
X4.3469Y-6.6276
X4.3701Y-2.0472
X4.3701Y-2.2441
X4.3701Y-2.4409
X4.3701Y-2.6378
X4.3701Y-3.0315
X4.3701Y-3.2283
X4.3701Y-3.4252
X4.3701Y-4.0157
X4.3701Y-4.2126
X4.3701Y-4.2913
X4.3701Y-4.4094
X4.3701Y-4.4882
X4.3701Y-4.6063
X4.3701Y-5.1575
X4.3701Y-5.2756
X4.3701Y-5.3543
X4.3701Y-5.6693
X4.3701Y-5.748
X4.3701Y-6.7717
X4.3701Y-6.9685
X4.3701Y-7.1654
X4.3701Y-7.3622
X4.3701Y-7.5591
X4.3701Y-7.7559
X4.3701Y-7.9528
X4.3701Y-8.1496
X4.4094Y-5.4331
X4.4094Y-5.5512
X4.4094Y-5.8661
X4.4094Y-6.1811
X4.4094Y-6.378
X4.4094Y-6.5748
X4.474Y-4.1945
X4.5276Y-3.0709
X4.5276Y-3.2283
X4.5276Y-3.622
X4.5276Y-7.6772
X4.5669Y-2.0472
X4.5669Y-2.2441
X4.5669Y-2.4409
X4.5669Y-2.6378
X4.5669Y-6.1811
X4.5669Y-6.378
X4.5669Y-6.5748
X4.5669Y-6.7717
X4.5669Y-6.9685
X4.5669Y-7.1654
X4.5669Y-7.3622
X4.5669Y-7.5591
X4.5669Y-8.1496
X4.6236Y-5.8339
X4.6457Y-7.4803
X4.685Y-3.1496
X4.7244Y-5.0
X4.7244Y-5.2756
X4.7638Y-2.0472
X4.7638Y-2.2441
X4.7638Y-2.4409
X4.7638Y-2.5984
X4.7638Y-2.8346
X4.7638Y-3.0315
X4.7638Y-3.2283
X4.7638Y-3.4252
X4.7638Y-3.622
X4.7638Y-4.0157
X4.7638Y-4.2126
X4.7638Y-4.4094
X4.7638Y-5.0787
X4.7638Y-5.1969
X4.7638Y-5.9843
X4.7638Y-6.1811
X4.7638Y-6.378
X4.7638Y-6.5748
X4.7638Y-6.7717
X4.7638Y-6.9685
X4.7638Y-7.1654
X4.7638Y-7.3622
X4.7638Y-7.5591
X4.7638Y-7.7559
X4.7638Y-7.9528
X4.7638Y-8.1496
X4.8425Y-7.4803
X4.8819Y-3.1496
X4.8819Y-3.3071
X4.8819Y-3.5039
X4.8819Y-7.6378
X4.8819Y-7.8346
X4.9606Y-2.0472
X4.9606Y-2.2441
X4.9606Y-2.4409
X4.9606Y-2.5984
X4.9606Y-3.2283
X4.9606Y-3.4252
X4.9606Y-3.622
X4.9606Y-4.0157
X4.9606Y-4.2126
X4.9606Y-4.4094
X4.9606Y-5.0787
X4.9606Y-5.1969
X4.9606Y-5.9843
X4.9606Y-6.1811
X4.9606Y-6.378
X4.9606Y-6.5748
X4.9606Y-6.7717
X4.9606Y-6.9685
X4.9606Y-7.5591
X4.9606Y-7.7559
X4.9606Y-7.9528
X4.9606Y-8.1496
X5.0Y-2.8346
X5.0Y-7.2047
X5.0394Y-2.9134
X5.0394Y-4.8819
X5.0394Y-5.0
X5.0394Y-5.2756
X5.0394Y-7.2835
X5.0394Y-7.4803
X5.0787Y-3.1496
X5.0787Y-3.3071
X5.0787Y-3.5039
X5.0787Y-7.6378
X5.0787Y-7.8346
X5.1575Y-2.0472
X5.1575Y-2.2441
X5.1575Y-2.4409
X5.1575Y-2.5984
X5.1575Y-3.2283
X5.1575Y-3.4252
X5.1575Y-3.622
X5.1575Y-4.0157
X5.1575Y-4.2126
X5.1575Y-4.4094
X5.1575Y-5.0
X5.1575Y-5.3937
X5.1575Y-6.1811
X5.1575Y-6.378
X5.1575Y-6.5748
X5.1575Y-6.7717
X5.1575Y-6.9685
X5.1575Y-7.5591
X5.1575Y-7.7559
X5.1575Y-7.9528
X5.1575Y-8.1496
X5.1969Y-2.7559
X5.1969Y-2.8346
X5.1969Y-2.9134
X5.1969Y-7.126
X5.1969Y-7.2047
X5.1969Y-7.2835
X5.2362Y-4.7244
X5.2362Y-4.8819
X5.2362Y-5.1181
X5.2362Y-5.2756
X5.2362Y-5.5118
X5.2362Y-7.5197
X5.2756Y-3.1496
X5.2756Y-3.3071
X5.2756Y-3.5039
X5.2756Y-7.6378
X5.2756Y-7.8346
X5.3543Y-2.0472
X5.3543Y-2.2441
X5.3543Y-2.4409
X5.3543Y-2.5984
X5.3543Y-3.2283
X5.3543Y-3.4252
X5.3543Y-3.622
X5.3543Y-4.0157
X5.3543Y-4.2126
X5.3543Y-4.6063
X5.3543Y-4.8031
X5.3543Y-5.0
X5.3543Y-5.1969
X5.3543Y-5.3937
X5.3543Y-5.5906
X5.3543Y-5.7874
X5.3543Y-5.9843
X5.3543Y-6.1811
X5.3543Y-6.378
X5.3543Y-6.5748
X5.3543Y-6.7717
X5.3543Y-6.9685
X5.3543Y-7.5591
X5.3543Y-7.7559
X5.3543Y-7.9528
X5.3543Y-8.1496
X5.3937Y-2.8346
X5.3937Y-2.9134
X5.3937Y-7.1654
X5.3937Y-7.2441
X5.4331Y-4.7244
X5.4331Y-4.8819
X5.4331Y-5.1181
X5.4331Y-5.2756
X5.4331Y-5.5118
X5.4724Y-2.8346
X5.4724Y-2.9134
X5.4724Y-3.1496
X5.4724Y-3.3071
X5.4724Y-3.5039
X5.4724Y-7.1654
X5.4724Y-7.2441
X5.4724Y-7.6378
X5.4724Y-7.8346
X5.5512Y-2.0472
X5.5512Y-2.8346
X5.5512Y-2.9134
X5.5512Y-3.2283
X5.5512Y-3.4252
X5.5512Y-3.622
X5.5512Y-4.0157
X5.5512Y-4.2126
X5.5512Y-4.4094
X5.5512Y-4.6063
X5.5512Y-4.8031
X5.5512Y-5.0
X5.5512Y-5.1969
X5.5512Y-5.3937
X5.5512Y-5.5906
X5.5512Y-5.7874
X5.5512Y-5.9843
X5.5512Y-6.1811
X5.5512Y-6.378
X5.5512Y-7.1654
X5.5512Y-7.2441
X5.5512Y-7.5591
X5.5512Y-7.7559
X5.5512Y-7.9528
X5.5512Y-8.1496
X5.6299Y-2.8346
X5.6299Y-2.9134
X5.6299Y-4.7244
X5.6299Y-4.8819
X5.6299Y-5.1181
X5.6299Y-5.2756
X5.6299Y-5.5118
X5.6299Y-7.1654
X5.6299Y-7.2441
X5.6693Y-3.3071
X5.6693Y-7.3622
X5.6693Y-7.6378
X5.748Y-2.0472
X5.748Y-2.2441
X5.748Y-2.4409
X5.748Y-2.5984
X5.748Y-2.8346
X5.748Y-2.9134
X5.748Y-3.0315
X5.748Y-3.1496
X5.748Y-3.622
X5.748Y-4.0157
X5.748Y-4.2126
X5.748Y-4.4094
X5.748Y-4.6063
X5.748Y-4.8031
X5.748Y-5.0
X5.748Y-5.1969
X5.748Y-5.3937
X5.748Y-5.5906
X5.748Y-5.7874
X5.748Y-5.9843
X5.748Y-6.1811
X5.748Y-6.378
X5.748Y-6.5748
X5.748Y-6.7717
X5.748Y-6.9685
X5.748Y-7.1654
X5.748Y-7.2441
X5.748Y-7.3622
X5.748Y-7.9528
X5.748Y-8.1496
X5.7874Y-3.937
X5.7874Y-4.252
X5.7874Y-7.4409
X5.8268Y-4.0157
X5.8268Y-4.0945
X5.8268Y-4.1732
X5.8268Y-7.1654
X5.8268Y-7.2441
X5.8661Y-3.1496
X5.8661Y-3.937
X5.8661Y-4.252
X5.9449Y-2.0472
X5.9449Y-2.8346
X5.9449Y-3.0315
X5.9449Y-3.3071
X5.9449Y-3.3858
X5.9449Y-3.622
X5.9449Y-3.937
X5.9449Y-4.252
X5.9449Y-5.3937
X5.9449Y-6.1811
X5.9449Y-6.378
X5.9449Y-6.7717
X5.9449Y-6.9685
X5.9449Y-7.1654
X5.9449Y-7.3622
X5.9449Y-7.6772
X5.9449Y-7.7559
X5.9449Y-7.874
X5.9449Y-7.9528
X5.9449Y-8.1496
X6.0236Y-3.937
X6.0236Y-4.252
X6.063Y-3.3465
X6.063Y-3.5433
X6.063Y-4.0157
X6.063Y-4.0945
X6.063Y-4.1732
X6.063Y-7.6772
X6.063Y-7.874
X6.1024Y-3.937
X6.1024Y-4.252
X6.1417Y-2.0472
X6.1417Y-2.2441
X6.1417Y-2.4409
X6.1417Y-2.6378
X6.1417Y-2.8346
X6.1417Y-3.0315
X6.1417Y-3.2283
X6.1417Y-3.3465
X6.1417Y-3.5433
X6.1417Y-3.622
X6.1417Y-4.0157
X6.1417Y-4.2126
X6.1417Y-4.4094
X6.1417Y-4.6063
X6.1417Y-4.8031
X6.1417Y-5.1969
X6.1417Y-5.3937
X6.1417Y-5.5906
X6.1417Y-5.7874
X6.1417Y-5.9843
X6.1417Y-6.1811
X6.1417Y-6.378
X6.1417Y-6.5748
X6.1417Y-6.7717
X6.1417Y-6.9685
X6.1417Y-7.1654
X6.1417Y-7.3622
X6.1417Y-7.5591
X6.1417Y-7.6772
X6.1417Y-7.874
X6.1417Y-8.1496
X6.2205Y-3.3465
X6.2205Y-3.5433
X6.2205Y-3.622
X6.2205Y-7.6772
X6.2598Y-4.9213
X6.2992Y-3.2283
X6.2992Y-3.3465
X6.2992Y-3.5433
X6.2992Y-3.622
X6.2992Y-4.0157
X6.2992Y-4.2126
X6.2992Y-4.4094
X6.2992Y-4.6063
X6.2992Y-5.1969
X6.2992Y-5.3937
X6.2992Y-5.5906
X6.2992Y-5.7874
X6.2992Y-5.9843
X6.2992Y-6.1811
X6.2992Y-6.378
X6.2992Y-6.5748
X6.2992Y-6.7717
X6.2992Y-6.9685
X6.2992Y-7.1654
X6.2992Y-7.6772
X6.3386Y-2.0472
X6.3386Y-2.2441
X6.3386Y-2.4409
X6.3386Y-2.6378
X6.3386Y-2.8346
X6.3386Y-7.9528
X6.3386Y-8.1496
X6.4173Y-7.9528
X6.4567Y-3.4646
X6.4567Y-3.5433
X6.4567Y-3.622
X6.4567Y-7.874
X6.5354Y-2.0472
X6.5354Y-2.2441
X6.5354Y-2.4409
X6.5354Y-2.6378
X6.5354Y-2.8346
X6.5354Y-3.0315
X6.5354Y-3.2283
X6.5354Y-4.0157
X6.5354Y-4.2126
X6.5354Y-4.4094
X6.5354Y-4.6063
X6.5354Y-4.8031
X6.5354Y-5.0
X6.5354Y-5.1969
X6.5354Y-5.3937
X6.5354Y-5.5906
X6.5354Y-5.7874
X6.5354Y-5.9843
X6.5354Y-6.1811
X6.5354Y-6.378
X6.5354Y-6.5748
X6.5354Y-6.7717
X6.5354Y-6.9685
X6.5354Y-7.1654
X6.5354Y-7.3622
X6.5354Y-7.5591
X6.5354Y-7.9528
X6.5354Y-8.1496
X6.6183Y-2.9173
X6.664Y-2.9173
X6.7089Y-2.9173
X6.7323Y-2.0472
X6.7323Y-2.2441
X6.7323Y-4.0157
X6.7323Y-4.2126
X6.7323Y-4.4094
X6.7323Y-4.6063
X6.7323Y-4.8031
X6.7323Y-5.0
X6.7323Y-5.1969
X6.7323Y-5.3937
X6.7323Y-5.5906
X6.7323Y-5.7874
X6.7323Y-5.9843
X6.7323Y-6.1811
X6.7323Y-6.378
X6.7323Y-6.5748
X6.7323Y-6.7717
X6.7323Y-6.9685
X6.7323Y-7.1654
X6.7323Y-7.3622
X6.7323Y-7.5591
X6.7323Y-7.9528
X6.7323Y-8.1496
X6.7506Y-2.9173
X6.765Y-2.8303
X6.799Y-2.9173
X6.8073Y-2.4974
X6.8671Y-2.8337
X6.8854Y-2.2071
X6.9018Y-2.4933
X6.9059Y-3.3443
X6.926Y-2.1713
X6.9291Y-2.0472
X6.9291Y-2.6378
X6.9291Y-2.8346
X6.9291Y-7.5591
X6.9291Y-7.9528
X6.9291Y-8.1496
X6.9492Y-3.3443
X6.9957Y-3.3431
X7.076Y-2.46
X7.126Y-2.0472
X7.126Y-2.2441
X7.126Y-2.6378
X7.126Y-2.8346
X7.126Y-3.0315
X7.126Y-3.4252
X7.126Y-3.622
X7.126Y-4.0157
X7.126Y-4.2126
X7.126Y-4.4094
X7.126Y-4.6063
X7.126Y-4.8031
X7.126Y-5.0
X7.126Y-5.1969
X7.126Y-5.3937
X7.126Y-5.5906
X7.126Y-5.7874
X7.126Y-5.9843
X7.126Y-6.1811
X7.126Y-6.378
X7.126Y-6.5748
X7.126Y-6.7717
X7.126Y-6.9685
X7.126Y-7.1654
X7.126Y-7.3622
X7.126Y-7.5591
X7.126Y-7.9528
X7.126Y-8.1496
X7.2197Y-2.1579
X7.2197Y-2.578
X7.2197Y-2.9937
X7.2197Y-3.4102
X7.3228Y-2.0472
X7.3228Y-4.0157
X7.3228Y-4.2126
X7.3228Y-4.4094
X7.3228Y-4.6063
X7.3228Y-4.8031
X7.3228Y-5.0
X7.3228Y-5.1969
X7.3228Y-5.3937
X7.3228Y-5.5906
X7.3228Y-5.7874
X7.3228Y-5.9843
X7.3228Y-6.1811
X7.3228Y-6.378
X7.3228Y-6.5748
X7.3228Y-6.7717
X7.3228Y-6.9685
X7.3228Y-7.1654
X7.3228Y-7.3622
X7.3228Y-7.5591
X7.3228Y-7.9528
X7.3228Y-8.1496
X7.5197Y-2.0472
X7.5197Y-4.0157
X7.5197Y-4.2126
X7.5197Y-4.4094
X7.5197Y-4.6063
X7.5197Y-4.8031
X7.5197Y-5.0
X7.5197Y-5.1969
X7.5197Y-5.3937
X7.5197Y-5.5906
X7.5197Y-5.7874
X7.5197Y-5.9843
X7.5197Y-6.1811
X7.5197Y-6.378
X7.5197Y-6.5748
X7.5197Y-6.7717
X7.5197Y-6.9685
X7.5197Y-7.1654
X7.5197Y-7.3622
X7.5197Y-7.5591
X7.5197Y-7.9528
X7.5197Y-8.1496
X7.7165Y-2.0472
X7.7165Y-4.0157
X7.7165Y-4.2126
X7.7165Y-4.4094
X7.7165Y-4.6063
X7.7165Y-4.8031
X7.7165Y-5.0
X7.7165Y-5.1969
X7.7165Y-5.3937
X7.7165Y-5.5906
X7.7165Y-5.7874
X7.7165Y-5.9843
X7.7165Y-6.1811
X7.7165Y-6.378
X7.7165Y-6.5748
X7.7165Y-6.7717
X7.7165Y-6.9685
X7.7165Y-7.1654
X7.7165Y-7.3622
X7.7165Y-7.5591
X7.7165Y-7.9528
X7.7165Y-8.1496
X7.9134Y-2.0472
X7.9134Y-2.2441
X7.9134Y-2.6772
X7.9134Y-2.8346
X7.9134Y-3.2283
X7.9134Y-3.622
X7.9134Y-4.0157
X7.9134Y-4.4094
X7.9134Y-4.8031
X7.9134Y-5.0
X7.9134Y-5.3937
X7.9134Y-5.5906
X7.9134Y-5.9843
X7.9134Y-6.1811
X7.9134Y-6.5748
X7.9134Y-6.9685
X7.9134Y-7.1654
X7.9134Y-7.3622
X7.9134Y-7.5591
X7.9134Y-7.9528
X7.9134Y-8.1496
X8.1102Y-2.0472
X8.1102Y-2.4409
X8.1102Y-2.8346
X8.1102Y-3.2283
X8.1102Y-3.622
X8.1102Y-4.0157
X8.1102Y-4.2126
X8.1102Y-4.4094
X8.1102Y-4.8031
X8.1102Y-5.0
X8.1102Y-5.1969
X8.1102Y-5.3937
X8.1102Y-5.5906
X8.1102Y-5.7874
X8.1102Y-5.9843
X8.1102Y-6.1811
X8.1102Y-6.378
X8.1102Y-6.5748
X8.1102Y-6.9685
X8.1102Y-7.1654
X8.1102Y-7.3622
X8.1102Y-7.5591
X8.3071Y-2.0472
X8.3071Y-2.4409
X8.3071Y-4.0157
X8.3071Y-5.7874
X8.3071Y-5.9843
X8.3071Y-6.1811
X8.3972Y-3.5018
X8.4055Y-5.0787
X8.4417Y-5.4411
X8.4421Y-7.6047
X8.5039Y-2.0472
X8.5039Y-2.2441
X8.5039Y-2.4409
X8.5039Y-2.8346
X8.5039Y-3.0315
X8.5039Y-3.2283
X8.5039Y-3.622
X8.5039Y-4.0157
X8.5039Y-4.2126
X8.5039Y-4.4094
X8.5039Y-4.6063
X8.5039Y-4.8031
X8.5039Y-5.0
X8.5039Y-5.1969
X8.5039Y-5.3937
X8.5039Y-5.5906
X8.5039Y-5.7874
X8.5039Y-5.9843
X8.5039Y-6.1811
X8.5039Y-6.378
X8.5039Y-6.5748
X8.5039Y-6.9685
X8.5039Y-7.1654
X8.5039Y-7.3622
X8.5039Y-7.5591
X8.5039Y-7.9528
X8.5039Y-8.1496
X8.563Y-2.9134
X8.5827Y-2.6181
X8.5827Y-4.4685
X8.5827Y-4.6457
X8.5827Y-4.7441
X8.6024Y-2.8346
X8.6024Y-4.9016
X8.6024Y-5.0787
X8.6024Y-6.8504
X8.6024Y-7.0669
X8.6024Y-7.2638
X8.622Y-3.1496
X8.6614Y-2.7756
X8.6614Y-4.685
X8.6811Y-2.9134
X8.6811Y-6.8504
X8.7008Y-2.0472
X8.7008Y-2.8346
X8.7008Y-3.0315
X8.7008Y-3.4252
X8.7008Y-3.622
X8.7008Y-4.0157
X8.7008Y-4.2126
X8.7008Y-4.4094
X8.7008Y-4.8031
X8.7008Y-5.0
X8.7008Y-5.3937
X8.7008Y-5.5906
X8.7008Y-5.7874
X8.7008Y-5.9843
X8.7008Y-6.1811
X8.7008Y-6.378
X8.7008Y-6.5748
X8.7008Y-6.9685
X8.7008Y-7.1654
X8.7008Y-7.3622
X8.7008Y-7.5591
X8.7008Y-7.9528
X8.7008Y-8.1496
X8.7205Y-5.2362
X8.7402Y-2.7756
X8.7402Y-4.4685
X8.7402Y-4.6457
X8.7598Y-6.8504
X8.7795Y-4.7441
X8.7992Y-2.8346
X8.7992Y-2.9134
X8.7992Y-3.1496
X8.7992Y-3.3268
X8.7992Y-3.5236
X8.7992Y-4.9016
X8.7992Y-5.0984
X8.7992Y-5.2953
X8.7992Y-7.0669
X8.7992Y-7.2638
X8.7992Y-7.4409
X8.7992Y-7.6378
X8.8189Y-2.6181
X8.8189Y-4.685
X8.8189Y-6.9488
X8.8386Y-6.8504
X8.8976Y-2.0472
X8.8976Y-2.2441
X8.8976Y-2.4409
X8.8976Y-3.2283
X8.8976Y-3.4252
X8.8976Y-3.622
X8.8976Y-4.0157
X8.8976Y-4.2126
X8.8976Y-4.4094
X8.8976Y-5.0
X8.8976Y-5.1969
X8.8976Y-5.3937
X8.8976Y-5.5906
X8.8976Y-5.7874
X8.8976Y-5.9843
X8.8976Y-6.1811
X8.8976Y-6.378
X8.8976Y-6.5748
X8.8976Y-7.1654
X8.8976Y-7.3622
X8.8976Y-7.5591
X8.8976Y-7.9528
X8.8976Y-8.1496
X8.937Y-2.6181
X8.9567Y-2.8543
X8.9567Y-4.7047
X8.9764Y-2.9134
X8.9764Y-4.4685
X8.9961Y-3.0118
X8.9961Y-3.1496
X8.9961Y-3.3268
X8.9961Y-3.5236
X8.9961Y-4.7835
X8.9961Y-4.9016
X8.9961Y-5.0984
X8.9961Y-5.2953
X8.9961Y-6.9488
X8.9961Y-7.0669
X8.9961Y-7.2638
X8.9961Y-7.4409
X8.9961Y-7.6378
X9.0748Y-4.6063
X9.0945Y-2.0472
X9.0945Y-3.2283
X9.0945Y-3.4252
X9.0945Y-3.622
X9.0945Y-4.0157
X9.0945Y-4.2126
X9.0945Y-4.4094
X9.0945Y-5.0
X9.0945Y-5.1969
X9.0945Y-5.3937
X9.0945Y-5.5906
X9.0945Y-5.7874
X9.0945Y-5.9843
X9.0945Y-6.1811
X9.0945Y-6.378
X9.0945Y-6.5748
X9.0945Y-7.1654
X9.0945Y-7.3622
X9.0945Y-7.5591
X9.0945Y-8.1496
X9.1535Y-2.7559
X9.1535Y-2.8346
X9.1535Y-2.9134
X9.1535Y-4.626
X9.1535Y-4.7047
X9.1535Y-4.7835
X9.1732Y-4.4685
X9.1732Y-6.7913
X9.1732Y-6.8701
X9.1732Y-6.9488
X9.1929Y-3.1496
X9.1929Y-3.3268
X9.1929Y-3.5236
X9.1929Y-5.0984
X9.1929Y-5.2953
X9.1929Y-7.2638
X9.1929Y-7.4409
X9.1929Y-7.6378
X9.2913Y-2.0472
X9.2913Y-2.2441
X9.2913Y-2.4409
X9.2913Y-3.2283
X9.2913Y-3.4252
X9.2913Y-3.622
X9.2913Y-4.0157
X9.2913Y-4.2126
X9.2913Y-4.4094
X9.2913Y-5.0
X9.2913Y-5.1969
X9.2913Y-5.3937
X9.2913Y-5.5906
X9.2913Y-5.7874
X9.2913Y-5.9843
X9.2913Y-6.1811
X9.2913Y-6.378
X9.2913Y-6.5748
X9.2913Y-7.2047
X9.2913Y-7.3622
X9.2913Y-7.5591
X9.2913Y-8.1496
X9.3307Y-6.9685
X9.3504Y-2.6181
X9.3504Y-4.6654
X9.3504Y-4.7638
X9.3701Y-2.815
X9.3701Y-2.9134
X9.3701Y-6.8504
X9.3898Y-3.3268
X9.3898Y-3.5236
X9.3898Y-4.4685
X9.3898Y-5.0984
X9.3898Y-5.2953
X9.3898Y-6.9094
X9.3898Y-7.2638
X9.3898Y-7.4409
X9.3898Y-7.6378
X9.4094Y-4.6457
X9.4094Y-4.7244
X9.4094Y-4.8031
X9.4291Y-2.7756
X9.4291Y-2.8543
X9.4291Y-6.7913
X9.4685Y-2.9134
X9.4685Y-6.8701
X9.4882Y-2.0472
X9.4882Y-2.4409
X9.4882Y-2.8346
X9.4882Y-3.2283
X9.4882Y-3.4252
X9.4882Y-3.622
X9.4882Y-4.2126
X9.4882Y-4.4094
X9.4882Y-4.6063
X9.4882Y-4.8031
X9.4882Y-5.0
X9.4882Y-5.1969
X9.4882Y-5.3937
X9.4882Y-5.5906
X9.4882Y-5.7874
X9.4882Y-5.9843
X9.4882Y-6.1811
X9.4882Y-6.378
X9.4882Y-6.5748
X9.4882Y-6.9685
X9.4882Y-7.2047
X9.4882Y-7.3622
X9.4882Y-7.5591
X9.4882Y-8.1496
X9.5866Y-3.3268
X9.5866Y-3.5236
X9.5866Y-5.0984
X9.5866Y-5.2953
X9.5866Y-7.2638
X9.5866Y-7.4409
X9.5866Y-7.6378
X9.626Y-3.4252
X9.6457Y-7.3622
X9.685Y-2.0472
X9.685Y-2.2441
X9.685Y-2.4409
X9.685Y-2.8346
X9.685Y-3.0315
X9.685Y-3.622
X9.685Y-4.0157
X9.685Y-4.2126
X9.685Y-4.4094
X9.685Y-4.6063
X9.685Y-4.8031
X9.685Y-4.9016
X9.685Y-5.0
X9.685Y-5.5906
X9.685Y-5.7874
X9.685Y-5.9843
X9.685Y-6.1811
X9.685Y-6.378
X9.685Y-6.5748
X9.685Y-6.9685
X9.685Y-7.0669
X9.685Y-7.1654
X9.685Y-8.1496
X9.7244Y-2.6181
X9.7638Y-3.1102
X9.7835Y-7.0669
X9.8819Y-2.0472
X9.8819Y-2.4409
X9.8819Y-2.8346
X9.8819Y-3.0315
X9.8819Y-3.622
X9.8819Y-4.2126
X9.8819Y-4.4094
X9.8819Y-4.6063
X9.8819Y-4.8031
X9.8819Y-4.9016
X9.8819Y-5.0
X9.8819Y-5.1969
X9.8819Y-5.3937
X9.8819Y-5.5906
X9.8819Y-5.7874
X9.8819Y-5.9843
X9.8819Y-6.1811
X9.8819Y-6.378
X9.8819Y-6.5748
X9.8819Y-6.9685
X9.8819Y-7.1654
X9.8819Y-7.3622
X9.8819Y-7.5591
X9.8819Y-8.1496
X9.9409Y-3.3661
X9.9409Y-7.4016
X9.9803Y-3.5236
X9.9803Y-5.3937
X9.9803Y-7.5591
X10.0Y-5.2165
X10.0197Y-7.4016
X10.0591Y-3.3268
X10.0591Y-3.5236
X10.0787Y-2.0472
X10.0787Y-2.2441
X10.0787Y-2.4409
X10.0787Y-2.6378
X10.0787Y-2.8346
X10.0787Y-3.0315
X10.0787Y-3.2283
X10.0787Y-3.622
X10.0787Y-4.0157
X10.0787Y-4.2126
X10.0787Y-4.4094
X10.0787Y-4.6063
X10.0787Y-4.8031
X10.0787Y-5.1969
X10.0787Y-5.3937
X10.0787Y-5.5906
X10.0787Y-5.7874
X10.0787Y-5.9843
X10.0787Y-6.1811
X10.0787Y-6.378
X10.0787Y-6.5748
X10.0787Y-6.7717
X10.0787Y-6.9685
X10.0787Y-7.1654
X10.0787Y-7.3622
X10.0787Y-7.5591
X10.0787Y-8.1496
X10.1575Y-3.3268
X10.1575Y-3.5236
X10.1575Y-5.1969
X10.1575Y-5.3937
X10.1575Y-7.3622
X10.1575Y-7.5591
X10.2362Y-3.3268
X10.2362Y-3.5236
X10.2362Y-5.1969
X10.2362Y-5.3937
X10.2362Y-7.3622
X10.2362Y-7.5591
X10.2559Y-3.5827
X10.2559Y-5.4528
X10.2756Y-2.0472
X10.2756Y-2.2441
X10.2756Y-2.4409
X10.2756Y-2.6378
X10.2756Y-2.8346
X10.2756Y-8.1496
X10.4134Y-3.5039
X10.4134Y-3.5827
X10.4134Y-5.3543
X10.4134Y-5.4331
X10.4724Y-2.0472
X10.4724Y-2.2441
X10.4724Y-2.4409
X10.4724Y-2.6378
X10.4724Y-2.8346
X10.4724Y-3.0315
X10.4724Y-3.2283
X10.4724Y-3.4252
X10.4724Y-3.622
X10.4724Y-4.0157
X10.4724Y-4.2126
X10.4724Y-4.4094
X10.4724Y-4.6063
X10.4724Y-4.8031
X10.4724Y-5.0
X10.4724Y-5.1969
X10.4724Y-5.3937
X10.4724Y-5.5906
X10.4724Y-5.7874
X10.4724Y-5.9843
X10.4724Y-6.1811
X10.4724Y-6.378
X10.4724Y-6.5748
X10.4724Y-6.7717
X10.4724Y-6.9685
X10.4724Y-7.1654
X10.4724Y-7.3622
X10.4724Y-7.5591
X10.4724Y-7.9528
X10.4724Y-8.1496
X10.5685Y-2.9067
X10.6142Y-2.9067
X10.6591Y-2.9067
X10.6693Y-2.0472
X10.6693Y-2.2441
X10.6693Y-3.622
X10.6693Y-4.0157
X10.6693Y-4.2126
X10.6693Y-4.4094
X10.6693Y-4.6063
X10.6693Y-4.8031
X10.6693Y-5.0
X10.6693Y-5.1969
X10.6693Y-5.3937
X10.6693Y-5.5906
X10.6693Y-5.7874
X10.6693Y-5.9843
X10.6693Y-6.1811
X10.6693Y-6.378
X10.6693Y-6.5748
X10.6693Y-6.7717
X10.6693Y-6.9685
X10.6693Y-7.1654
X10.6693Y-7.3622
X10.6693Y-7.5591
X10.6693Y-7.9528
X10.6693Y-8.1496
X10.7008Y-2.9067
X10.7152Y-2.8197
X10.7492Y-2.9067
X10.7579Y-2.4835
X10.8177Y-2.8197
X10.8354Y-2.1972
X10.852Y-2.4827
X10.8563Y-3.3472
X10.8661Y-2.0472
X10.8661Y-7.5591
X10.8661Y-7.9528
X10.8661Y-8.1496
X10.876Y-2.1614
X10.8996Y-3.3472
X10.9461Y-3.3461
X10.98Y-2.4469
X11.0315Y-2.4035
X11.0591Y-3.676
X11.063Y-2.0472
X11.063Y-2.2441
X11.063Y-4.0157
X11.063Y-4.2126
X11.063Y-4.4094
X11.063Y-4.6063
X11.063Y-4.8031
X11.063Y-5.0
X11.063Y-5.1969
X11.063Y-5.3937
X11.063Y-5.5906
X11.063Y-5.7874
X11.063Y-5.9843
X11.063Y-6.1811
X11.063Y-6.378
X11.063Y-6.5748
X11.063Y-6.7717
X11.063Y-6.9685
X11.063Y-7.1654
X11.063Y-7.3622
X11.063Y-7.5591
X11.063Y-7.9528
X11.063Y-8.1496
X11.0665Y-2.8295
X11.1063Y-3.1811
X11.1697Y-2.1496
X11.1701Y-2.572
X11.1701Y-2.9878
X11.1701Y-3.4043
X11.2598Y-2.0472
X11.2598Y-3.8189
X11.2598Y-4.0157
X11.2598Y-4.2126
X11.2598Y-4.4094
X11.2598Y-4.6063
X11.2598Y-4.8031
X11.2598Y-5.0
X11.2598Y-5.1969
X11.2598Y-5.3937
X11.2598Y-5.5906
X11.2598Y-5.7874
X11.2598Y-5.9843
X11.2598Y-6.1811
X11.2598Y-6.378
X11.2598Y-6.5748
X11.2598Y-6.7717
X11.2598Y-6.9685
X11.2598Y-7.1654
X11.2598Y-7.3622
X11.2598Y-7.5591
X11.2598Y-7.9528
X11.2598Y-8.1496
X11.4567Y-2.0472
X11.4567Y-3.8189
X11.4567Y-4.0157
X11.4567Y-4.2126
X11.4567Y-4.4094
X11.4567Y-4.6063
X11.4567Y-4.8031
X11.4567Y-5.0
X11.4567Y-5.1969
X11.4567Y-5.3937
X11.4567Y-5.5906
X11.4567Y-5.7874
X11.4567Y-5.9843
X11.4567Y-6.1811
X11.4567Y-6.378
X11.4567Y-6.5748
X11.4567Y-6.7717
X11.4567Y-6.9685
X11.4567Y-7.1654
X11.4567Y-7.3622
X11.4567Y-7.5591
X11.4567Y-7.9528
X11.4567Y-8.1496
X11.6535Y-2.0472
X11.6535Y-3.8189
X11.6535Y-4.0157
X11.6535Y-4.2126
X11.6535Y-4.4094
X11.6535Y-4.6063
X11.6535Y-4.8031
X11.6535Y-5.0
X11.6535Y-5.1969
X11.6535Y-5.3937
X11.6535Y-5.5906
X11.6535Y-5.7874
X11.6535Y-5.9843
X11.6535Y-6.1811
X11.6535Y-6.378
X11.6535Y-6.5748
X11.6535Y-6.7717
X11.6535Y-6.9685
X11.6535Y-7.1654
X11.6535Y-7.3622
X11.6535Y-7.5591
X11.6535Y-7.9528
X11.6535Y-8.1496
X11.8504Y-2.0472
X11.8504Y-2.2441
X11.8504Y-2.4409
X11.8504Y-2.6378
X11.8504Y-2.8346
X11.8504Y-3.0315
X11.8504Y-3.2283
X11.8504Y-3.622
X11.8504Y-3.8189
X11.8504Y-4.0157
X11.8504Y-4.2126
X11.8504Y-4.4094
X11.8504Y-5.3937
X11.8504Y-5.9843
X11.8504Y-6.1811
X11.8504Y-6.5748
X11.8504Y-7.1654
X11.8504Y-7.5591
X11.8504Y-8.1496
X12.0472Y-2.0472
X12.0472Y-2.2441
X12.0472Y-2.4409
X12.0472Y-2.6378
X12.0472Y-2.8346
X12.0472Y-3.0315
X12.0472Y-3.2283
X12.0472Y-3.622
X12.0472Y-3.8189
X12.0472Y-4.0157
X12.0472Y-4.2126
X12.0472Y-4.4094
X12.0472Y-4.8031
X12.0472Y-5.0
X12.0472Y-5.1969
X12.0472Y-5.3937
X12.0472Y-5.5906
X12.0472Y-5.7874
X12.0472Y-5.9843
X12.0472Y-6.1811
X12.0472Y-6.378
X12.0472Y-6.5748
X12.0472Y-6.9685
X12.0472Y-7.1654
X12.0472Y-7.3622
X12.0472Y-7.5591
X12.0472Y-7.9528
X12.0472Y-8.1496
X12.2441Y-2.0472
X12.2441Y-3.8189
X12.2441Y-4.0157
X12.2441Y-5.7874
X12.2441Y-5.9843
X12.2441Y-6.1811
X12.2441Y-7.9528
X12.2441Y-8.1496
X12.3476Y-3.5047
X12.3894Y-7.6098
X12.3921Y-5.4441
X12.4409Y-2.0472
X12.4409Y-2.2441
X12.4409Y-2.4409
X12.4409Y-3.0315
X12.4409Y-3.2283
X12.4409Y-3.622
X12.4409Y-3.8189
X12.4409Y-4.0157
X12.4409Y-4.2126
X12.4409Y-4.4094
X12.4409Y-4.6063
X12.4409Y-4.8031
X12.4409Y-5.0
X12.4409Y-5.1969
X12.4409Y-5.3937
X12.4409Y-5.5906
X12.4409Y-5.7874
X12.4409Y-5.9843
X12.4409Y-6.1811
X12.4409Y-6.378
X12.4409Y-6.5748
X12.4409Y-6.7717
X12.4409Y-6.9685
X12.4409Y-7.1654
X12.4409Y-7.3622
X12.4409Y-7.5591
X12.4409Y-7.9528
X12.4409Y-8.1496
X12.4606Y-2.7953
X12.4803Y-6.811
X12.5Y-2.874
X12.5Y-6.8898
X12.5394Y-2.5984
X12.5394Y-2.9724
X12.5394Y-4.6654
X12.5394Y-5.0591
X12.5394Y-7.0669
X12.5394Y-7.2244
X12.5458Y-4.7643
X12.5591Y-2.815
X12.5591Y-3.1299
X12.5591Y-4.9016
X12.5591Y-6.6339
X12.5591Y-6.8307
X12.5984Y-4.6654
X12.6181Y-2.7756
X12.6181Y-6.8898
X12.6378Y-2.0472
X12.6378Y-2.8346
X12.6378Y-3.0315
X12.6378Y-3.4252
X12.6378Y-3.622
X12.6378Y-3.8189
X12.6378Y-4.0157
X12.6378Y-4.2126
X12.6378Y-4.4094
X12.6378Y-4.8031
X12.6378Y-5.0
X12.6378Y-5.3937
X12.6378Y-5.5906
X12.6378Y-5.7874
X12.6378Y-5.9843
X12.6378Y-6.1811
X12.6378Y-6.378
X12.6378Y-6.5748
X12.6378Y-6.9685
X12.6378Y-7.1654
X12.6378Y-7.5591
X12.6378Y-7.9528
X12.6378Y-8.1496
X12.6575Y-4.6654
X12.6772Y-6.8307
X12.6969Y-2.7953
X12.6969Y-2.8937
X12.6969Y-4.9016
X12.7165Y-4.6654
X12.7165Y-7.0669
X12.7362Y-2.9724
X12.7362Y-3.1299
X12.7362Y-3.3268
X12.7362Y-7.2638
X12.7362Y-7.4606
X12.7362Y-7.6378
X12.7559Y-5.0984
X12.7559Y-5.2953
X12.7559Y-6.6339
X12.7559Y-6.8898
X12.7756Y-2.5984
X12.7756Y-2.8346
X12.7756Y-4.6457
X12.7756Y-4.7638
X12.7756Y-6.7913
X12.8346Y-2.0472
X12.8346Y-2.2441
X12.8346Y-2.4409
X12.8346Y-3.2283
X12.8346Y-3.4252
X12.8346Y-3.622
X12.8346Y-3.8189
X12.8346Y-4.0157
X12.8346Y-4.2126
X12.8346Y-4.4094
X12.8346Y-5.0
X12.8346Y-5.1969
X12.8346Y-5.3937
X12.8346Y-5.5906
X12.8346Y-5.7874
X12.8346Y-5.9843
X12.8346Y-6.1811
X12.8346Y-6.378
X12.8346Y-6.5748
X12.8346Y-7.1654
X12.8346Y-7.3622
X12.8346Y-7.5591
X12.8346Y-8.1496
X12.9134Y-2.8346
X12.9134Y-2.8937
X12.9134Y-4.7047
X12.9134Y-6.8701
X12.9331Y-2.5984
X12.9331Y-2.9724
X12.9331Y-3.1299
X12.9331Y-3.3268
X12.9331Y-4.8031
X12.9331Y-6.9685
X12.9331Y-7.2638
X12.9331Y-7.4606
X12.9331Y-7.6378
X12.9528Y-5.0984
X12.9528Y-5.2953
X12.9528Y-6.6339
X13.0315Y-2.0472
X13.0315Y-3.2283
X13.0315Y-3.4252
X13.0315Y-3.622
X13.0315Y-3.8189
X13.0315Y-4.0157
X13.0315Y-4.2126
X13.0315Y-4.4094
X13.0315Y-5.0
X13.0315Y-5.1969
X13.0315Y-5.3937
X13.0315Y-5.5906
X13.0315Y-5.7874
X13.0315Y-5.9843
X13.0315Y-6.1811
X13.0315Y-6.378
X13.0315Y-6.5748
X13.0315Y-7.1654
X13.0315Y-7.3622
X13.0315Y-7.5591
X13.0315Y-8.1496
X13.1102Y-2.7559
X13.1102Y-2.8346
X13.1102Y-2.9331
X13.1102Y-4.6063
X13.1102Y-4.685
X13.1102Y-4.7835
X13.1102Y-6.7913
X13.1102Y-6.8701
X13.1102Y-6.9685
X13.1299Y-3.1299
X13.1299Y-3.3268
X13.1299Y-7.2638
X13.1299Y-7.4606
X13.1299Y-7.6378
X13.1496Y-5.0984
X13.1496Y-5.2953
X13.1496Y-6.6339
X13.2087Y-2.5984
X13.2283Y-2.0472
X13.2283Y-2.2441
X13.2283Y-2.4409
X13.2283Y-3.2283
X13.2283Y-3.4252
X13.2283Y-3.622
X13.2283Y-3.8189
X13.2283Y-4.0157
X13.2283Y-4.2126
X13.2283Y-4.4094
X13.2283Y-5.0
X13.2283Y-5.1969
X13.2283Y-5.3937
X13.2283Y-5.5906
X13.2283Y-5.7874
X13.2283Y-5.9843
X13.2283Y-6.1811
X13.2283Y-6.378
X13.2283Y-6.5748
X13.2283Y-7.2047
X13.2283Y-7.3622
X13.2283Y-7.5591
X13.2283Y-8.1496
X13.2874Y-2.9134
X13.3071Y-4.6654
X13.3071Y-4.7441
X13.3071Y-6.8307
X13.3071Y-6.9291
X13.3268Y-2.815
X13.3268Y-3.3268
X13.3268Y-7.2638
X13.3268Y-7.4606
X13.3268Y-7.6378
X13.3465Y-2.874
X13.3465Y-5.0984
X13.3465Y-5.2953
X13.3465Y-6.6339
X13.3661Y-2.5984
X13.3661Y-2.7559
X13.3661Y-4.626
X13.3661Y-4.7835
X13.3661Y-6.7913
X13.3661Y-6.8701
X13.3858Y-2.9331
X13.3858Y-4.7047
X13.4252Y-2.0472
X13.4252Y-2.4409
X13.4252Y-2.8346
X13.4252Y-3.2283
X13.4252Y-3.4252
X13.4252Y-3.622
X13.4252Y-3.8189
X13.4252Y-4.2126
X13.4252Y-4.4094
X13.4252Y-4.6063
X13.4252Y-4.8031
X13.4252Y-5.0
X13.4252Y-5.1969
X13.4252Y-5.3937
X13.4252Y-5.5906
X13.4252Y-5.7874
X13.4252Y-5.9843
X13.4252Y-6.378
X13.4252Y-6.5748
X13.4252Y-6.7717
X13.4252Y-6.8504
X13.4252Y-6.9685
X13.4252Y-7.1654
X13.4252Y-7.3622
X13.4252Y-7.5591
X13.4252Y-8.1496
X13.4449Y-2.7559
X13.4843Y-2.9331
X13.5236Y-3.3268
X13.5236Y-7.2638
X13.5236Y-7.4606
X13.5236Y-7.6378
X13.5433Y-5.0984
X13.5827Y-7.3622
X13.622Y-2.0472
X13.622Y-2.2441
X13.622Y-2.4409
X13.622Y-2.5984
X13.622Y-2.8346
X13.622Y-3.0315
X13.622Y-3.622
X13.622Y-3.8189
X13.622Y-4.0157
X13.622Y-4.2126
X13.622Y-4.4094
X13.622Y-4.6063
X13.622Y-4.8031
X13.622Y-5.0
X13.622Y-5.5906
X13.622Y-5.7874
X13.622Y-5.9843
X13.622Y-6.1811
X13.622Y-6.378
X13.622Y-6.5748
X13.622Y-6.7717
X13.622Y-6.9685
X13.622Y-8.1496
X13.6929Y-7.0591
X13.7008Y-3.1102
X13.7205Y-4.9016
X13.7205Y-7.6378
X13.8189Y-2.0472
X13.8189Y-2.4409
X13.8189Y-2.8346
X13.8189Y-3.0315
X13.8189Y-3.622
X13.8189Y-3.8189
X13.8189Y-4.2126
X13.8189Y-4.4094
X13.8189Y-4.6063
X13.8189Y-4.8031
X13.8189Y-5.0
X13.8189Y-5.3937
X13.8189Y-5.5906
X13.8189Y-5.7874
X13.8189Y-5.9843
X13.8189Y-6.378
X13.8189Y-6.5748
X13.8189Y-6.7717
X13.8189Y-6.9685
X13.8189Y-7.1654
X13.8189Y-7.5591
X13.8189Y-8.1496
X13.8386Y-7.3228
X13.878Y-7.3819
X13.8976Y-3.3465
X13.8976Y-3.5236
X13.8976Y-5.2165
X13.8976Y-5.374
X13.8976Y-7.5591
X14.0157Y-2.0472
X14.0157Y-2.2441
X14.0157Y-2.4409
X14.0157Y-2.6378
X14.0157Y-2.8346
X14.0157Y-3.0315
X14.0157Y-3.2283
X14.0157Y-3.3268
X14.0157Y-3.5236
X14.0157Y-3.622
X14.0157Y-3.8189
X14.0157Y-4.0157
X14.0157Y-4.2126
X14.0157Y-4.4094
X14.0157Y-4.6063
X14.0157Y-4.8031
X14.0157Y-5.0
X14.0157Y-5.1969
X14.0157Y-5.3937
X14.0157Y-5.5906
X14.0157Y-5.7874
X14.0157Y-5.9843
X14.0157Y-6.1811
X14.0157Y-6.378
X14.0157Y-6.5748
X14.0157Y-6.7717
X14.0157Y-6.9685
X14.0157Y-7.1654
X14.0157Y-7.3622
X14.0157Y-7.5591
X14.0157Y-8.1496
X14.0945Y-7.3622
X14.1142Y-3.3268
X14.1142Y-3.5236
X14.1142Y-5.1969
X14.1142Y-5.374
X14.1142Y-7.5591
X14.1339Y-5.4331
X14.1535Y-3.5827
X14.1732Y-7.6378
X14.2118Y-5.4638
X14.2126Y-2.0472
X14.2126Y-2.4409
X14.2126Y-2.6378
X14.2126Y-2.8346
X14.2126Y-3.2283
X14.2126Y-3.3268
X14.2126Y-3.5236
X14.2126Y-3.622
X14.2126Y-3.8189
X14.2126Y-4.0157
X14.2126Y-4.2126
X14.2126Y-4.4094
X14.2126Y-4.6063
X14.2126Y-4.8031
X14.2126Y-5.0
X14.2126Y-5.1969
X14.2126Y-5.3937
X14.2126Y-5.5906
X14.2126Y-5.7874
X14.2126Y-5.9843
X14.2126Y-6.1811
X14.2126Y-6.378
X14.2126Y-6.5748
X14.2126Y-6.7717
X14.2126Y-6.9685
X14.2126Y-7.1654
X14.2126Y-7.3622
X14.2126Y-7.5591
X14.2126Y-8.1496
X14.3701Y-5.3543
X14.3701Y-5.4331
X14.3701Y-7.6181
X14.3898Y-3.5236
X14.4094Y-2.4409
X14.4094Y-2.6378
X14.4094Y-2.8346
X14.4094Y-3.0315
X14.4094Y-3.2283
X14.4094Y-3.4252
X14.4094Y-3.622
X14.4094Y-3.8189
X14.4094Y-4.0157
X14.4094Y-4.2126
X14.4094Y-4.4094
X14.4094Y-4.6063
X14.4094Y-4.8031
X14.4094Y-5.0
X14.4094Y-5.1969
X14.4094Y-5.3937
X14.4094Y-5.5906
X14.4094Y-5.7874
X14.4094Y-5.9843
X14.4094Y-6.1811
X14.4094Y-6.378
X14.4094Y-6.5748
X14.4094Y-6.7717
X14.4094Y-6.9685
X14.4094Y-7.1654
X14.4094Y-7.3622
X14.4094Y-7.5591
X14.4094Y-7.7559
T2
X7.3285Y-2.2629
X7.3285Y-2.3629
X7.3285Y-2.6839
X7.3285Y-2.7839
X7.3285Y-3.105
X7.3285Y-3.205
X7.3285Y-3.526
X7.3285Y-3.626
X7.4285Y-2.2629
X7.4285Y-2.3629
X7.4285Y-2.6839
X7.4285Y-2.7839
X7.4285Y-3.105
X7.4285Y-3.205
X7.4285Y-3.526
X7.4285Y-3.626
X7.5285Y-2.2629
X7.5285Y-2.3629
X7.5285Y-2.6839
X7.5285Y-2.7839
X7.5285Y-3.105
X7.5285Y-3.205
X7.5285Y-3.526
X7.5285Y-3.626
X7.6285Y-2.2629
X7.6285Y-2.3629
X7.6285Y-2.6839
X7.6285Y-2.7839
X7.6285Y-3.105
X7.6285Y-3.205
X7.6285Y-3.526
X7.6285Y-3.626
X7.7285Y-2.2629
X7.7285Y-2.3629
X7.7285Y-2.6839
X7.7285Y-2.7839
X7.7285Y-3.105
X7.7285Y-3.205
X7.7285Y-3.526
X7.7285Y-3.626
X11.2783Y-2.2539
X11.2783Y-2.3539
X11.2783Y-2.6749
X11.2783Y-2.7749
X11.2783Y-3.0959
X11.2783Y-3.1959
X11.2783Y-3.5169
X11.2783Y-3.6169
X11.3783Y-2.2539
X11.3783Y-2.3539
X11.3783Y-2.6749
X11.3783Y-2.7749
X11.3783Y-3.0959
X11.3783Y-3.1959
X11.3783Y-3.5169
X11.3783Y-3.6169
X11.4783Y-2.2539
X11.4783Y-2.3539
X11.4783Y-2.6749
X11.4783Y-2.7749
X11.4783Y-3.0959
X11.4783Y-3.1959
X11.4783Y-3.5169
X11.4783Y-3.6169
X11.5783Y-2.2539
X11.5783Y-2.3539
X11.5783Y-2.6749
X11.5783Y-2.7749
X11.5783Y-3.0959
X11.5783Y-3.1959
X11.5783Y-3.5169
X11.5783Y-3.6169
X11.6783Y-2.2539
X11.6783Y-2.3539
X11.6783Y-2.6749
X11.6783Y-2.7749
X11.6783Y-3.0959
X11.6783Y-3.1959
X11.6783Y-3.5169
X11.6783Y-3.6169
T3
X2.0616Y-2.756
X2.0616Y-3.7757
X2.0616Y-5.0714
X2.122Y-6.4724
X2.122Y-7.4803
X2.1616Y-2.756
X2.1616Y-3.7757
X2.1616Y-5.0714
X2.222Y-6.4724
X2.222Y-7.4803
X5.2451Y-5.8801
X5.2516Y-4.4117
X5.3451Y-5.8801
X5.3516Y-4.4117
X5.473Y-2.2178
X5.4769Y-6.5731
X5.573Y-2.2178
X5.5769Y-6.5731
X5.8894Y-2.2178
X5.8934Y-6.5731
X5.9894Y-2.2178
X5.9934Y-6.5731
X6.2858Y-3.0771
X6.2858Y-4.7543
X6.2858Y-7.4291
X6.3858Y-3.0771
X6.3858Y-4.7543
X6.3858Y-7.4291
X8.6102Y-2.2244
X8.7102Y-2.2244
X9.0267Y-2.2244
X9.0496Y-8.0276
X9.1267Y-2.2244
X9.1496Y-8.0276
X9.4392Y-6.2623
X9.4432Y-2.2244
X9.4453Y-4.0768
X9.5353Y-8.0276
X9.5392Y-6.2623
X9.5432Y-2.2244
X9.5453Y-4.0768
X9.6353Y-8.0276
X9.8557Y-6.2583
X9.8597Y-2.2244
X9.8614Y-4.0795
X9.9557Y-6.2583
X9.9597Y-2.2244
X9.9614Y-4.0795
X10.2336Y-8.0199
X10.2362Y-3.0039
X10.2362Y-4.8661
X10.2362Y-7.0461
X10.3336Y-8.0199
X10.3362Y-3.0039
X10.3362Y-4.8661
X10.3362Y-7.0461
X12.5601Y-2.2154
X12.6601Y-2.2154
X12.6871Y-8.0314
X12.7871Y-8.0314
X12.9766Y-2.2154
X13.0766Y-2.2154
X13.1728Y-8.0314
X13.2728Y-8.0314
X13.389Y-6.2533
X13.3918Y-4.0777
X13.393Y-2.2154
X13.489Y-6.2533
X13.4918Y-4.0777
X13.493Y-2.2154
X13.8055Y-6.2492
X13.8083Y-4.0736
X13.8095Y-2.2154
X13.8711Y-8.0237
X13.9055Y-6.2492
X13.9083Y-4.0736
X13.9095Y-2.2154
X13.9711Y-8.0237
X14.1911Y-3.0403
X14.1911Y-4.9025
X14.1911Y-7.0824
X14.2911Y-3.0403
X14.2911Y-4.9025
X14.2911Y-7.0824
T4
X5.1437Y-4.744
X5.1437Y-5.144
X5.1437Y-5.544
X5.9437Y-5.044
X5.9437Y-5.244
X5.9437Y-5.544
T5
X2.0866Y-2.219
X2.0866Y-8.0315
X8.2283Y-2.219
X8.2283Y-8.0315
X14.3701Y-2.219
X14.3701Y-8.0315
M30
