%TF.GenerationSoftware,KiCad,Pcbnew,8.0.1-rc1*%
%TF.CreationDate,2024-04-07T21:12:12-04:00*%
%TF.ProjectId,bcrl_power_supply,6263726c-5f70-46f7-9765-725f73757070,rev?*%
%TF.SameCoordinates,Original*%
%TF.FileFunction,Legend,Bot*%
%TF.FilePolarity,Positive*%
%FSLAX46Y46*%
G04 Gerber Fmt 4.6, Leading zero omitted, Abs format (unit mm)*
G04 Created by KiCad (PCBNEW 8.0.1-rc1) date 2024-04-07 21:12:12*
%MOMM*%
%LPD*%
G01*
G04 APERTURE LIST*
%ADD10C,0.508000*%
G04 APERTURE END LIST*
D10*
%TO.C,J21*%
X319252852Y-203997201D02*
G75*
G02*
X318490852Y-203997201I-381000J0D01*
G01*
X318490852Y-203997201D02*
G75*
G02*
X319252852Y-203997201I381000J0D01*
G01*
%TO.C,J23*%
X239198499Y-203900000D02*
G75*
G02*
X238436499Y-203900000I-381000J0D01*
G01*
X238436499Y-203900000D02*
G75*
G02*
X239198499Y-203900000I381000J0D01*
G01*
%TO.C,J67*%
X346452308Y-103572799D02*
G75*
G02*
X345690308Y-103572799I-381000J0D01*
G01*
X345690308Y-103572799D02*
G75*
G02*
X346452308Y-103572799I381000J0D01*
G01*
%TO.C,J12*%
X165960724Y-120760000D02*
G75*
G02*
X165198724Y-120760000I-381000J0D01*
G01*
X165198724Y-120760000D02*
G75*
G02*
X165960724Y-120760000I381000J0D01*
G01*
%TO.C,J22*%
X331590075Y-203997201D02*
G75*
G02*
X330828075Y-203997201I-381000J0D01*
G01*
X330828075Y-203997201D02*
G75*
G02*
X331590075Y-203997201I381000J0D01*
G01*
%TO.C,J27*%
X145313931Y-56332201D02*
G75*
G02*
X144551931Y-56332201I-381000J0D01*
G01*
X144551931Y-56332201D02*
G75*
G02*
X145313931Y-56332201I381000J0D01*
G01*
%TO.C,J30*%
X155992347Y-166957201D02*
G75*
G02*
X155230347Y-166957201I-381000J0D01*
G01*
X155230347Y-166957201D02*
G75*
G02*
X155992347Y-166957201I381000J0D01*
G01*
%TO.C,J24*%
X226861276Y-203900000D02*
G75*
G02*
X226099276Y-203900000I-381000J0D01*
G01*
X226099276Y-203900000D02*
G75*
G02*
X226861276Y-203900000I381000J0D01*
G01*
%TO.C,J82*%
X266234324Y-203705598D02*
G75*
G02*
X265472324Y-203705598I-381000J0D01*
G01*
X265472324Y-203705598D02*
G75*
G02*
X266234324Y-203705598I381000J0D01*
G01*
%TO.C,J57*%
X346483931Y-56270000D02*
G75*
G02*
X345721931Y-56270000I-381000J0D01*
G01*
X345721931Y-56270000D02*
G75*
G02*
X346483931Y-56270000I381000J0D01*
G01*
%TO.C,J6*%
X50901276Y-190000000D02*
G75*
G02*
X50139276Y-190000000I-381000J0D01*
G01*
X50139276Y-190000000D02*
G75*
G02*
X50901276Y-190000000I381000J0D01*
G01*
%TO.C,J1*%
X58665900Y-70002799D02*
G75*
G02*
X57903900Y-70002799I-381000J0D01*
G01*
X57903900Y-70002799D02*
G75*
G02*
X58665900Y-70002799I381000J0D01*
G01*
%TO.C,J75*%
X346382308Y-158832799D02*
G75*
G02*
X345620308Y-158832799I-381000J0D01*
G01*
X345620308Y-158832799D02*
G75*
G02*
X346382308Y-158832799I381000J0D01*
G01*
%TO.C,J4*%
X58665900Y-128812799D02*
G75*
G02*
X57903900Y-128812799I-381000J0D01*
G01*
X57903900Y-128812799D02*
G75*
G02*
X58665900Y-128812799I381000J0D01*
G01*
%TO.C,J53*%
X266300724Y-178970000D02*
G75*
G02*
X265538724Y-178970000I-381000J0D01*
G01*
X265538724Y-178970000D02*
G75*
G02*
X266300724Y-178970000I381000J0D01*
G01*
%TO.C,J42*%
X256780724Y-103620000D02*
G75*
G02*
X256018724Y-103620000I-381000J0D01*
G01*
X256018724Y-103620000D02*
G75*
G02*
X256780724Y-103620000I381000J0D01*
G01*
%TO.C,J9*%
X139690724Y-112057201D02*
G75*
G02*
X138928724Y-112057201I-381000J0D01*
G01*
X138928724Y-112057201D02*
G75*
G02*
X139690724Y-112057201I381000J0D01*
G01*
%TO.C,J10*%
X130226100Y-149354402D02*
G75*
G02*
X129464100Y-149354402I-381000J0D01*
G01*
X129464100Y-149354402D02*
G75*
G02*
X130226100Y-149354402I381000J0D01*
G01*
%TO.C,J80*%
X235579139Y-56500000D02*
G75*
G02*
X234817139Y-56500000I-381000J0D01*
G01*
X234817139Y-56500000D02*
G75*
G02*
X235579139Y-56500000I381000J0D01*
G01*
%TO.C,J31*%
X145413931Y-166957201D02*
G75*
G02*
X144651931Y-166957201I-381000J0D01*
G01*
X144651931Y-166957201D02*
G75*
G02*
X145413931Y-166957201I381000J0D01*
G01*
%TO.C,J69*%
X366755900Y-124522799D02*
G75*
G02*
X365993900Y-124522799I-381000J0D01*
G01*
X365993900Y-124522799D02*
G75*
G02*
X366755900Y-124522799I381000J0D01*
G01*
%TO.C,J45*%
X266300724Y-123600000D02*
G75*
G02*
X265538724Y-123600000I-381000J0D01*
G01*
X265538724Y-123600000D02*
G75*
G02*
X266300724Y-123600000I381000J0D01*
G01*
%TO.C,J81*%
X225000724Y-56500000D02*
G75*
G02*
X224238724Y-56500000I-381000J0D01*
G01*
X224238724Y-56500000D02*
G75*
G02*
X225000724Y-56500000I381000J0D01*
G01*
%TO.C,J58*%
X335905516Y-56270000D02*
G75*
G02*
X335143516Y-56270000I-381000J0D01*
G01*
X335143516Y-56270000D02*
G75*
G02*
X335905516Y-56270000I381000J0D01*
G01*
%TO.C,J29*%
X165960724Y-78157201D02*
G75*
G02*
X165198724Y-78157201I-381000J0D01*
G01*
X165198724Y-78157201D02*
G75*
G02*
X165960724Y-78157201I381000J0D01*
G01*
%TO.C,J78*%
X256735970Y-56500000D02*
G75*
G02*
X255973970Y-56500000I-381000J0D01*
G01*
X255973970Y-56500000D02*
G75*
G02*
X256735970Y-56500000I381000J0D01*
G01*
%TO.C,J61*%
X366755900Y-77222799D02*
G75*
G02*
X365993900Y-77222799I-381000J0D01*
G01*
X365993900Y-77222799D02*
G75*
G02*
X366755900Y-77222799I381000J0D01*
G01*
%TO.C,J50*%
X256634347Y-158960000D02*
G75*
G02*
X255872347Y-158960000I-381000J0D01*
G01*
X255872347Y-158960000D02*
G75*
G02*
X256634347Y-158960000I381000J0D01*
G01*
%TO.C,J33*%
X165960724Y-188700000D02*
G75*
G02*
X165198724Y-188700000I-381000J0D01*
G01*
X165198724Y-188700000D02*
G75*
G02*
X165960724Y-188700000I381000J0D01*
G01*
%TO.C,J77*%
X366755900Y-179892799D02*
G75*
G02*
X365993900Y-179892799I-381000J0D01*
G01*
X365993900Y-179892799D02*
G75*
G02*
X366755900Y-179892799I381000J0D01*
G01*
%TO.C,J59*%
X325327101Y-56270000D02*
G75*
G02*
X324565101Y-56270000I-381000J0D01*
G01*
X324565101Y-56270000D02*
G75*
G02*
X325327101Y-56270000I381000J0D01*
G01*
%TO.C,J43*%
X246210724Y-103550000D02*
G75*
G02*
X245448724Y-103550000I-381000J0D01*
G01*
X245448724Y-103550000D02*
G75*
G02*
X246210724Y-103550000I381000J0D01*
G01*
%TO.C,J79*%
X246157554Y-56500000D02*
G75*
G02*
X245395554Y-56500000I-381000J0D01*
G01*
X245395554Y-56500000D02*
G75*
G02*
X246157554Y-56500000I381000J0D01*
G01*
%TO.C,J66*%
X357030724Y-103470000D02*
G75*
G02*
X356268724Y-103470000I-381000J0D01*
G01*
X356268724Y-103470000D02*
G75*
G02*
X357030724Y-103470000I381000J0D01*
G01*
%TO.C,J51*%
X246055931Y-159062799D02*
G75*
G02*
X245293931Y-159062799I-381000J0D01*
G01*
X245293931Y-159062799D02*
G75*
G02*
X246055931Y-159062799I381000J0D01*
G01*
%TO.C,J2*%
X58665900Y-95902799D02*
G75*
G02*
X57903900Y-95902799I-381000J0D01*
G01*
X57903900Y-95902799D02*
G75*
G02*
X58665900Y-95902799I381000J0D01*
G01*
%TO.C,J74*%
X356960724Y-158730000D02*
G75*
G02*
X356198724Y-158730000I-381000J0D01*
G01*
X356198724Y-158730000D02*
G75*
G02*
X356960724Y-158730000I381000J0D01*
G01*
%TO.C,J25*%
X358625900Y-203802799D02*
G75*
G02*
X357863900Y-203802799I-381000J0D01*
G01*
X357863900Y-203802799D02*
G75*
G02*
X358625900Y-203802799I381000J0D01*
G01*
%TO.C,J37*%
X266300724Y-76300000D02*
G75*
G02*
X265538724Y-76300000I-381000J0D01*
G01*
X265538724Y-76300000D02*
G75*
G02*
X266300724Y-76300000I381000J0D01*
G01*
%TO.C,J5*%
X50901276Y-164400000D02*
G75*
G02*
X50139276Y-164400000I-381000J0D01*
G01*
X50139276Y-164400000D02*
G75*
G02*
X50901276Y-164400000I381000J0D01*
G01*
%TO.C,J56*%
X357062347Y-56270000D02*
G75*
G02*
X356300347Y-56270000I-381000J0D01*
G01*
X356300347Y-56270000D02*
G75*
G02*
X357062347Y-56270000I381000J0D01*
G01*
%TO.C,J26*%
X155892347Y-56332201D02*
G75*
G02*
X155130347Y-56332201I-381000J0D01*
G01*
X155130347Y-56332201D02*
G75*
G02*
X155892347Y-56332201I381000J0D01*
G01*
%TD*%
M02*
